<?xml version="1.0" encoding="UTF-8"?>
<svg xmlns="http://www.w3.org/2000/svg" xmlns:xlink="http://www.w3.org/1999/xlink" width="14pt" height="14pt" viewBox="0 0 14 14" version="1.1">
<g id="surface1">
<path style=" stroke:none;fill-rule:nonzero;fill:#980d0d;fill-opacity:1;" d="M 12.816406 12.671875 C 12.578125 12.429688 12.269531 12.277344 11.9375 12.234375 C 11.589844 11.640625 10.945312 11.265625 10.25 11.265625 C 9.8125 11.265625 9.402344 11.410156 9.070312 11.660156 L 11.363281 8.386719 C 12.847656 6.261719 12.597656 3.394531 10.765625 1.5625 C 9.90625 0.703125 8.816406 0.175781 7.613281 0.0351562 C 6.445312 -0.101562 5.25 0.15625 4.25 0.761719 C 4.121094 0.839844 4.078125 1.007812 4.15625 1.136719 C 4.234375 1.265625 4.402344 1.308594 4.53125 1.230469 C 6.414062 0.09375 8.820312 0.390625 10.378906 1.949219 C 12.023438 3.589844 12.25 6.167969 10.914062 8.070312 L 7.996094 12.242188 C 7.402344 12.335938 6.921875 12.777344 6.773438 13.347656 C 6.769531 13.34375 3.078125 8.070312 3.078125 8.070312 C 1.996094 6.523438 1.925781 4.480469 2.898438 2.863281 C 2.976562 2.734375 2.933594 2.566406 2.804688 2.488281 C 2.675781 2.410156 2.507812 2.453125 2.429688 2.582031 C 1.34375 4.382812 1.421875 6.660156 2.628906 8.386719 L 4.074219 10.449219 C 3.449219 10.664062 2.917969 11.105469 2.589844 11.691406 C 2.117188 11.738281 1.675781 11.949219 1.339844 12.292969 C 0.960938 12.679688 0.75 13.1875 0.75 13.726562 C 0.75 13.878906 0.875 14 1.027344 14 L 12.972656 14 C 13.125 14 13.25 13.878906 13.25 13.726562 C 13.25 13.328125 13.09375 12.957031 12.816406 12.671875 Z M 2.769531 12.230469 C 2.871094 12.226562 2.964844 12.167969 3.011719 12.074219 C 3.285156 11.5 3.796875 11.078125 4.40625 10.921875 L 6.175781 13.453125 L 1.324219 13.453125 C 1.453125 12.769531 2.050781 12.242188 2.769531 12.230469 Z M 7.3125 13.453125 C 7.429688 13.058594 7.796875 12.769531 8.230469 12.769531 C 8.355469 12.769531 8.476562 12.792969 8.589844 12.839844 C 8.660156 12.867188 8.734375 12.867188 8.800781 12.839844 C 8.867188 12.8125 8.921875 12.757812 8.949219 12.691406 C 9.164062 12.15625 9.675781 11.8125 10.25 11.8125 C 10.789062 11.8125 11.289062 12.128906 11.519531 12.613281 C 11.5625 12.707031 11.65625 12.769531 11.761719 12.769531 C 12.183594 12.777344 12.542969 13.066406 12.660156 13.453125 Z M 7.3125 13.453125 "/>
<path style=" stroke:none;fill-rule:nonzero;fill:#980d0d;fill-opacity:1;" d="M 3.421875 2.027344 C 3.492188 2.027344 3.5625 2 3.613281 1.949219 C 3.664062 1.894531 3.695312 1.824219 3.695312 1.753906 C 3.695312 1.683594 3.664062 1.613281 3.613281 1.5625 C 3.5625 1.511719 3.492188 1.480469 3.421875 1.480469 C 3.347656 1.480469 3.277344 1.511719 3.226562 1.5625 C 3.175781 1.613281 3.148438 1.683594 3.148438 1.753906 C 3.148438 1.824219 3.175781 1.894531 3.226562 1.949219 C 3.277344 2 3.347656 2.027344 3.421875 2.027344 Z M 3.421875 2.027344 "/>
<path style=" stroke:none;fill-rule:nonzero;fill:#980d0d;;fill-opacity:1;" d="M 4.210938 4.769531 L 4.457031 4.769531 L 4.457031 7.777344 C 4.457031 7.929688 4.578125 8.050781 4.730469 8.050781 L 9.269531 8.050781 C 9.421875 8.050781 9.542969 7.929688 9.542969 7.777344 L 9.542969 4.769531 L 9.789062 4.769531 C 9.910156 4.769531 10.015625 4.695312 10.050781 4.582031 C 10.085938 4.464844 10.046875 4.34375 9.949219 4.273438 L 7.15625 2.304688 C 7.0625 2.238281 6.9375 2.238281 6.84375 2.304688 L 4.050781 4.273438 C 3.953125 4.34375 3.914062 4.464844 3.949219 4.582031 C 3.984375 4.695312 4.089844 4.769531 4.210938 4.769531 Z M 6.617188 7.503906 L 6.617188 5.972656 L 7.382812 5.972656 L 7.382812 7.503906 Z M 8.996094 7.503906 L 7.929688 7.503906 L 7.929688 5.699219 C 7.929688 5.550781 7.808594 5.425781 7.65625 5.425781 L 6.34375 5.425781 C 6.191406 5.425781 6.070312 5.550781 6.070312 5.699219 L 6.070312 7.503906 L 5.003906 7.503906 L 5.003906 4.769531 L 8.996094 4.769531 Z M 7 2.863281 L 8.929688 4.222656 L 5.070312 4.222656 Z M 7 2.863281 "/>
</g>
</svg>
