<?xml version="1.0" encoding="UTF-8"?>
<svg xmlns="http://www.w3.org/2000/svg" xmlns:xlink="http://www.w3.org/1999/xlink" width="14pt" height="14pt" viewBox="0 0 14 14" version="1.1">
<g id="surface1">
<path style=" stroke:none;fill-rule:nonzero;fill:#980d0d;fill-opacity:1;" d="M 7.601562 6.378906 C 7.796875 6.574219 7.796875 6.890625 7.601562 7.085938 C 7.40625 7.28125 7.089844 7.28125 6.894531 7.085938 C 6.699219 6.890625 6.699219 6.574219 6.894531 6.378906 C 7.089844 6.183594 7.40625 6.183594 7.601562 6.378906 "/>
<path style=" stroke:none;fill-rule:nonzero;fill:#980d0d;fill-opacity:1;" d="M 5.019531 6.378906 C 5.214844 6.574219 5.214844 6.890625 5.019531 7.085938 C 4.824219 7.28125 4.507812 7.28125 4.3125 7.085938 C 4.117188 6.890625 4.117188 6.574219 4.3125 6.378906 C 4.507812 6.183594 4.824219 6.183594 5.019531 6.378906 "/>
<path style=" stroke:none;fill-rule:nonzero;fill:#980d0d;fill-opacity:1;" d="M 10.1875 6.378906 C 10.382812 6.574219 10.382812 6.890625 10.1875 7.085938 C 9.992188 7.28125 9.675781 7.28125 9.480469 7.085938 C 9.285156 6.890625 9.285156 6.574219 9.480469 6.378906 C 9.675781 6.183594 9.992188 6.183594 10.1875 6.378906 "/>
<path style=" stroke:none;fill-rule:nonzero;fill:#980d0d;fill-opacity:1;" d="M 3.5 14 C 3.390625 14 3.277344 13.964844 3.1875 13.890625 C 3.023438 13.757812 2.960938 13.539062 3.027344 13.34375 L 3.804688 11 L 0.5 11 C 0.222656 11 0 10.777344 0 10.5 L 0 0.5 C 0 0.222656 0.222656 0 0.5 0 L 13.5 0 C 13.777344 0 14 0.222656 14 0.5 L 14 10.5 C 14 10.777344 13.777344 11 13.5 11 L 8.636719 11 L 3.757812 13.929688 C 3.675781 13.976562 3.589844 14 3.5 14 Z M 1 10 L 4.5 10 C 4.660156 10 4.8125 10.078125 4.90625 10.207031 C 5 10.335938 5.027344 10.503906 4.972656 10.65625 L 4.402344 12.375 L 8.242188 10.070312 C 8.320312 10.023438 8.410156 10 8.5 10 L 13 10 L 13 1 L 1 1 Z M 1 10 "/>
</g>
</svg>
