<?xml version="1.0" encoding="UTF-8"?>
<svg xmlns="http://www.w3.org/2000/svg" xmlns:xlink="http://www.w3.org/1999/xlink" width="18pt" height="18pt" viewBox="0 0 18 18" version="1.1">
<g id="surface1">
<path style=" stroke:none;fill-rule:nonzero;fill:#980d0d;fill-opacity:1;" d="M 16.3125 2.25 L 1.6875 2.25 C 0.757812 2.25 0 3.007812 0 3.9375 L 0 14.0625 C 0 14.992188 0.757812 15.75 1.6875 15.75 L 16.3125 15.75 C 17.242188 15.75 18 14.992188 18 14.0625 L 18 3.9375 C 18 3.007812 17.242188 2.25 16.3125 2.25 Z M 16.3125 3.375 C 16.390625 3.375 16.460938 3.390625 16.527344 3.417969 L 9 9.941406 L 1.472656 3.417969 C 1.539062 3.390625 1.609375 3.375 1.6875 3.375 Z M 16.3125 14.625 L 1.6875 14.625 C 1.378906 14.625 1.125 14.371094 1.125 14.0625 L 1.125 4.605469 L 8.632812 11.113281 C 8.738281 11.203125 8.867188 11.25 9 11.25 C 9.132812 11.25 9.261719 11.203125 9.367188 11.113281 L 16.875 4.605469 L 16.875 14.0625 C 16.875 14.371094 16.621094 14.625 16.3125 14.625 Z M 16.3125 14.625 "/>
</g>
</svg>
