<?xml version="1.0" encoding="UTF-8"?>
<svg xmlns="http://www.w3.org/2000/svg" xmlns:xlink="http://www.w3.org/1999/xlink" width="14pt" height="14pt" viewBox="0 0 14 14" version="1.1">
<g id="surface1">
<path style=" stroke:none;fill-rule:nonzero;fill:rgb(59.607843%,5.098039%,5.098039%);fill-opacity:1;" d="M 12.410156 1.710938 L 1.285156 1.710938 C 0.578125 1.710938 0 2.289062 0 2.996094 L 0 10.699219 C 0 11.40625 0.578125 11.984375 1.285156 11.984375 L 12.410156 11.984375 C 13.117188 11.984375 13.695312 11.40625 13.695312 10.699219 L 13.695312 2.996094 C 13.695312 2.289062 13.117188 1.710938 12.410156 1.710938 Z M 12.410156 2.566406 C 12.472656 2.566406 12.523438 2.578125 12.574219 2.601562 L 6.847656 7.5625 L 1.121094 2.601562 C 1.171875 2.578125 1.222656 2.566406 1.285156 2.566406 Z M 12.410156 11.128906 L 1.285156 11.128906 C 1.050781 11.128906 0.855469 10.933594 0.855469 10.699219 L 0.855469 3.503906 L 6.570312 8.457031 C 6.648438 8.523438 6.746094 8.558594 6.847656 8.558594 C 6.949219 8.558594 7.046875 8.523438 7.128906 8.457031 L 12.839844 3.503906 L 12.839844 10.699219 C 12.839844 10.933594 12.648438 11.128906 12.410156 11.128906 Z M 12.410156 11.128906 "/>
</g>
</svg>
