<?xml version="1.0" encoding="UTF-8"?>
<svg xmlns="http://www.w3.org/2000/svg" xmlns:xlink="http://www.w3.org/1999/xlink" width="14pt" height="14pt" viewBox="0 0 14 14" version="1.1">
<g id="surface1">
<path style=" stroke:none;fill-rule:nonzero;fill:#980d0d;fill-opacity:1;" d="M 13.417969 14 C 6.019531 14 0 7.980469 0 0.582031 C 0 0.261719 0.261719 0 0.582031 0 L 5.25 0 C 5.574219 0 5.832031 0.261719 5.832031 0.582031 C 5.832031 1.738281 6.09375 2.855469 6.609375 3.910156 C 6.726562 4.148438 6.667969 4.4375 6.464844 4.609375 L 3.222656 7.367188 C 4.121094 8.714844 5.28125 9.875 6.625 10.773438 L 9.390625 7.535156 C 9.566406 7.332031 9.851562 7.273438 10.089844 7.390625 C 11.144531 7.90625 12.261719 8.167969 13.417969 8.167969 C 13.738281 8.167969 14 8.425781 14 8.75 L 14 13.417969 C 14 13.738281 13.738281 14 13.417969 14 Z M 7.640625 11.382812 C 9.203125 12.222656 10.960938 12.730469 12.832031 12.820312 L 12.832031 9.3125 C 11.855469 9.25 10.90625 9.019531 9.992188 8.628906 C 9.992188 8.628906 7.640625 11.382812 7.640625 11.382812 Z M 1.179688 1.167969 C 1.269531 3.035156 1.777344 4.796875 2.613281 6.355469 L 5.371094 4.007812 C 4.980469 3.09375 4.75 2.144531 4.6875 1.167969 C 4.6875 1.167969 1.179688 1.167969 1.179688 1.167969 Z M 1.179688 1.167969 "/>
</g>
</svg>
